<svg width="50" height="50" viewBox="0 0 50 50" fill="#fff" xmlns="http://www.w3.org/2000/svg">
<path d="M29.9906 28.139H19.9856C18.9601 28.139 18.1096 28.9895 18.1096 30.015C18.1096 31.0405 18.9601 31.8909 19.9856 31.8909H29.9906C31.0161 31.8909 31.8665 31.0405 31.8665 30.015C31.8665 28.9895 31.0161 28.139 29.9906 28.139Z" fill="#00aaff"/>
<path d="M19.9856 21.8859H24.9881C26.0136 21.8859 26.864 21.0355 26.864 20.01C26.864 18.9845 26.0136 18.1341 24.9881 18.1341H19.9856C18.9601 18.1341 18.1096 18.9845 18.1096 20.01C18.1096 21.0355 18.9601 21.8859 19.9856 21.8859Z" fill="#00aaff"/>
<path d="M35.4678 0H14.5322C5.42768 0 0 5.4277 0 14.5322V35.4677C0 44.5722 5.42768 49.9999 14.5322 49.9999H35.4678C44.5723 49.9999 50 44.5722 50 35.4677V14.5322C50 5.4277 44.5723 0 35.4678 0ZM39.995 32.5162C39.995 37.5187 37.4938 40.0199 32.4913 40.0199H17.4837C12.4812 40.0199 9.97995 37.5187 9.97995 32.5162V17.5087C9.97995 12.5062 12.4812 10.005 17.4837 10.005H27.4888C32.4913 10.005 34.9925 12.5062 34.9925 17.5087V20.01C34.9925 21.3857 36.1181 22.5112 37.4938 22.5112C38.8695 22.5112 39.995 23.6368 39.995 25.0125V32.5162Z" fill="#00aaff"/>
</svg>
    